<?xml version="1.0" encoding="utf-8"?>
<!-- Generator: Adobe Illustrator 27.5.0, SVG Export Plug-In . SVG Version: 6.00 Build 0)  -->
<svg version="1.1" id="Layer_1" xmlns="http://www.w3.org/2000/svg" xmlns:xlink="http://www.w3.org/1999/xlink" x="0px" y="0px"
	 viewBox="0 0 577.43 205.9" style="enable-background:new 0 0 577.43 205.9;" xml:space="preserve">
<style type="text/css">
	.st0{fill:#0E1116;}
	.st1{fill:#F8F8EF;}
	.st2{fill:#8E27FC;}
	.st3{fill:#4D5762;}
</style>
<g id="Group_674_00000106856769330492338740000005917021583205678009_" transform="translate(-26 17)">
	<g id="Rectangle_122-2_00000052069067913817408390000003574703763945306011_">
		<rect x="26" y="-17" class="st0" width="577.43" height="205.9"/>
	</g>
	<g id="Path_109-2_00000151535872903001963660000010623173054771961533_">
		<path class="st1" d="M314.19,125.12h-10.44V46.27l43.63-0.13v9.91h-33.2v17.07h33.17v9.91h-33.17V125.12z"/>
	</g>
	<g id="Path_110-2_00000061433761645288638310000015100925618916539052_">
		<path class="st1" d="M417.81,125.13h-13.76l-19.25-35.24h-4.41l0.13,35.24h-10.61V46.25h40.87v43.64h-12.12L417.81,125.13z
			 M399.79,56.03h-19.41v23.95h19.4L399.79,56.03z"/>
	</g>
	<g id="Path_111-2_00000030482309971263364680000000616370780015642803_">
		<path class="st1" d="M479.75,114.39v10.74h-43.63V46.27l43.63-0.13v9.91H446.6v17.07h33.17v9.91H446.6v31.38L479.75,114.39z"/>
	</g>
	<g id="Path_112-2_00000043430453379556173990000003436790021054259121_">
		<path class="st1" d="M535.35,162.83h-10.46v-37.71h-22.57V46.26h43.63v78.87h-10.6V162.83z M534.96,114.38V56.03l-22.16,0.14
			v58.19L534.96,114.38z"/>
	</g>
	<g id="Path_113-2_00000055665928395415542740000006958786296353728423_">
		<path class="st2" d="M166.76,136.97l-4.44,0l-10.54-86.59l-10.48,83.46l-4.44,0.02l-10.64-79.06l-10.39,68.2l-4.41,0.07
			l-10.9-58.52l-10.17,38.08l-4.25,0.23c-0.21-0.54-4.49-11.66-6.12-16.36H52.75v-4.48h28.84l2.15,1.62
			c0.39,1.37,2.32,6.53,4.07,11.15l10.94-40.95l4.36,0.17l10.29,55.24l10.75-70.55l4.43,0.04L139,116.2l10.59-84.34l4.44,0.01
			l10.52,86.41l10.5-85.31l4.44-0.02l10.63,81.5l10.39-71.03l4.42-0.06l10.76,61.94l10.29-46.92l4.32-0.2l7.54,23.85h32.43v4.48
			h-34.07l-2.13-1.56l-5.51-17.42l-10.93,49.87l-4.39-0.1L202.9,57.91l-10.7,73.2l-4.43-0.03l-10.44-80.03L166.76,136.97z"/>
	</g>
	<g id="Rectangle_123-2_00000063605794836392181810000009683233047382840966_">
		<path class="st3" d="M578.81,164.28H50.62V7.62h528.19V164.28z M55.1,159.81h519.24V12.09H55.1V159.81z"/>
	</g>
	<g id="Line_1-2_00000123403290828034649920000015690053212963089795_">
		<rect x="270.02" y="10.25" class="st3" width="4.48" height="152.58"/>
	</g>
</g>
</svg>
